<svg width="337" height="49" viewBox="0 0 337 49" fill="none" xmlns="http://www.w3.org/2000/svg"><path d="M46.595 0v49H32.742V29.89h-18.89V49H0V0h13.852v18.41h18.89V0h13.853z" fill="url(#paint0_linear_1139_236)"/><path d="M89.178 39.48H68.47L64.622 49H50.489L72.108 0H85.75l21.689 49H93.027l-3.849-9.52zm-4.057-10.22l-6.297-15.68-6.296 15.68H85.12z" fill="url(#paint1_linear_1139_236)"/><path d="M155.582 49l-.14-25.97-12.593 21.14h-6.157l-12.523-20.44V49h-12.803V0h11.404l17.21 28.28L156.771 0h11.404l.14 49h-12.733z" fill="url(#paint2_linear_1139_236)"/><path d="M222.333 49l-.14-25.97L209.6 44.17h-6.157L190.92 23.73V49h-12.803V0h11.404l17.211 28.28L223.523 0h11.404l.139 49h-12.733z" fill="url(#paint3_linear_1139_236)"/><path d="M284.187 38.29V49h-39.319V0h38.41v10.71h-24.697v8.26h21.758v10.36h-21.758v8.96h25.606z" fill="url(#paint4_linear_1139_236)"/><path d="M313.283 35.98h-7.556V49h-13.853V0h22.388c4.431 0 8.279.747 11.544 2.24 3.265 1.447 5.784 3.547 7.556 6.3 1.772 2.707 2.659 5.903 2.659 9.59 0 3.547-.84 6.65-2.519 9.31-1.633 2.613-3.988 4.667-7.066 6.16L337 49h-14.832l-8.885-13.02zm8.745-17.85c0-2.287-.723-4.06-2.169-5.32-1.446-1.26-3.591-1.89-6.436-1.89h-7.696v14.35h7.696c2.845 0 4.99-.607 6.436-1.82 1.446-1.26 2.169-3.033 2.169-5.32z" fill="url(#paint5_linear_1139_236)"/><defs><linearGradient id="paint0_linear_1139_236" x1="149.681" y1="49" x2="149.681" y2="0" gradientUnits="userSpaceOnUse"><stop stop-color="#C7E80A"/><stop offset="1" stop-color="#fff"/></linearGradient><linearGradient id="paint1_linear_1139_236" x1="149.681" y1="49" x2="149.681" y2="0" gradientUnits="userSpaceOnUse"><stop stop-color="#C7E80A"/><stop offset="1" stop-color="#fff"/></linearGradient><linearGradient id="paint2_linear_1139_236" x1="149.681" y1="49" x2="149.681" y2="0" gradientUnits="userSpaceOnUse"><stop stop-color="#C7E80A"/><stop offset="1" stop-color="#fff"/></linearGradient><linearGradient id="paint3_linear_1139_236" x1="149.681" y1="49" x2="149.681" y2="0" gradientUnits="userSpaceOnUse"><stop stop-color="#C7E80A"/><stop offset="1" stop-color="#fff"/></linearGradient><linearGradient id="paint4_linear_1139_236" x1="149.681" y1="49" x2="149.681" y2="0" gradientUnits="userSpaceOnUse"><stop stop-color="#C7E80A"/><stop offset="1" stop-color="#fff"/></linearGradient><linearGradient id="paint5_linear_1139_236" x1="149.681" y1="49" x2="149.681" y2="0" gradientUnits="userSpaceOnUse"><stop stop-color="#C7E80A"/><stop offset="1" stop-color="#fff"/></linearGradient></defs></svg>